<?xml version="1.0" encoding="UTF-8"?>
<svg id="Capa_2" data-name="Capa 2" xmlns="http://www.w3.org/2000/svg" viewBox="0 0 428.07 427.19">
  <defs>
    <style>
      .cls-1 {
        fill: #fff;
        stroke-width: 0px;
      }
    </style>
  </defs>
  <g id="Capa_1-2" data-name="Capa 1">
    <path class="cls-1" d="M211.14,427.19c-54.92-3.02-96.83-29.39-121.43-81.86-1.82-3.89-4.08-6.21-8.02-7.93C-3.42,300.21-27.14,190.89,34.97,122.52c13.52-14.88,29.55-26.17,47.95-34.28,2.41-1.06,4.86-3.44,5.98-5.82C113.5,29.93,154.58.55,212.65,0c58.95-.55,100.94,28.59,126.03,81.79,1.62,3.43,3.57,5.51,7.01,6.96,48.85,20.58,83.62,70.29,82.34,128.94-1.11,51.15-34.54,100.25-83.59,120.78-2.01.84-4.1,2.83-4.99,4.81-21.44,47.7-58.08,75.23-109.8,82.73-5.25.76-10.62.7-18.51,1.17ZM214.32,407.85c49.51-.03,93.95-31.8,109.81-78.66,1.06-3.13,2.63-4.79,5.84-5.89,46.38-15.8,78.69-59.96,78.92-107.61.26-51.48-30.24-95.44-78.06-112.2-3.88-1.36-5.7-3.45-7.01-7.26-16.05-46.54-62.28-78.78-111.08-77.69-50.21,1.12-92.45,31.75-109,79.19-1.06,3.04-2.76,4.4-5.68,5.39-46.93,15.94-78.82,60.29-78.96,109.64-.15,49.67,31.4,94.12,78.59,110.41,3.33,1.15,5.14,2.71,6.28,6.06,16.03,47.1,60.39,78.63,110.36,78.61Z"/>
    <path class="cls-1" d="M168.63,334.05c6.48-9.05,12.47-17.78,18.86-26.21,2.78-3.66,3.83-7.35,3.77-11.9-.21-17.46-.08-34.93-.08-52.39,0-1.8,0-3.6,0-5.79-1.98-.1-3.58-.26-5.19-.26-18.82-.02-37.64-.12-56.45.1-2.77.03-5.87,1.07-8.22,2.56-9.24,5.86-18.24,12.1-27.89,18.56v-90.87c4.88,3.42,9.82,6.18,13.89,9.89,10.47,9.55,22.38,12.74,36.48,11.74,14.91-1.06,29.96-.28,44.94-.32.31,0,.63-.18,1.52-.45.08-1.38.24-2.97.24-4.56.02-18.13.13-36.26-.11-54.39-.04-2.74-1.17-5.84-2.74-8.11-5.68-8.2-11.77-16.11-17.69-24.14-.74-1.01-1.36-2.1-2.4-3.73h90.5c-6.01,8.93-11.46,17.41-17.33,25.59-2.85,3.98-4.08,7.97-4.01,12.89.25,17.63.1,35.26.1,52.89,0,1.81,0,3.62,0,5.49.98.25,1.61.55,2.23.55,20.15.04,40.3.11,60.45-.05,1.95-.02,4.09-1.19,5.79-2.34,9.58-6.53,19.04-13.21,29.15-20.27v91.59c-5.42-3.64-10.72-6.45-15.1-10.3-11.01-9.68-23.41-13.1-38.03-11.88-12.73,1.06-25.63.22-38.45.22h-5.8c-.1,2.07-.24,3.68-.24,5.28-.02,17.96-.11,35.93.1,53.89.03,2.78.98,5.89,2.45,8.26,5.88,9.44,12.14,18.65,18.61,28.48h-89.35Z"/>
  </g>
</svg>