<?xml version="1.0" encoding="UTF-8"?>
<svg id="Capa_2" data-name="Capa 2" xmlns="http://www.w3.org/2000/svg" viewBox="0 0 394.8 394.33">
  <defs>
    <style>
      .cls-1 {
        fill: #fff;
        stroke-width: 0px;
      }
    </style>
  </defs>
  <g id="Capa_1-2" data-name="Capa 1">
    <path class="cls-1" d="M197.66,394.33c-51.04,0-96.31-32.26-112.66-80.3-.85-2.49-1.95-3.55-4.73-4.5C32.11,292.89-.15,247.57,0,196.74c.15-50.65,32.57-95.66,80.66-112,2.42-.82,3.39-1.72,4.13-3.85,8.28-23.75,23.07-43.87,42.76-58.17C147.23,8.44,170.93.59,196.09.03c24.14-.53,48.76,7.07,69.31,21.44,20.57,14.37,36.26,34.95,44.19,57.94,1.13,3.27,2.46,4.66,5.48,5.71,48.7,17.07,80,62.04,79.73,114.57-.24,48.65-33.39,93.87-80.62,109.96-2.41.82-3.45,1.87-4.28,4.32-16.26,48.04-61.34,80.33-112.18,80.36h-.06ZM198.49,5c-.77,0-1.52,0-2.29.03-49.52,1.11-90.41,30.81-106.69,77.52-1.26,3.61-3.36,5.62-7.24,6.94C36.2,105.13,5.15,148.24,5,196.76c-.15,48.69,30.76,92.11,76.9,108.04,4.21,1.46,6.48,3.66,7.83,7.62,15.66,46.01,59.03,76.91,107.93,76.91h.06c48.69-.03,91.87-30.96,107.44-76.96,1.32-3.91,3.54-6.14,7.4-7.45,45.24-15.42,77-58.7,77.23-105.25.25-50.37-29.73-93.48-76.39-109.83-4.46-1.56-6.93-4.11-8.55-8.8-15.3-44.37-59.78-76.03-106.37-76.03Z"/>
    <path class="cls-1" d="M166.02,280.94c4.48-6.26,8.62-12.29,13.04-18.12,1.92-2.53,2.65-5.08,2.61-8.23-.14-12.07-.06-24.14-.06-36.22,0-1.24,0-2.49,0-4-1.37-.07-2.48-.18-3.59-.18-13.01-.01-26.02-.08-39.02.07-1.92.02-4.05.74-5.68,1.77-6.39,4.05-12.61,8.36-19.28,12.83v-62.82c3.37,2.37,6.79,4.27,9.6,6.83,7.24,6.6,15.47,8.8,25.22,8.11,10.31-.73,20.71-.19,31.07-.22.22,0,.43-.12,1.05-.31.05-.96.17-2.05.17-3.15.01-12.53.09-25.07-.08-37.6-.02-1.89-.81-4.03-1.9-5.61-3.93-5.67-8.14-11.14-12.23-16.69-.51-.7-.94-1.45-1.66-2.58h62.56c-4.15,6.17-7.92,12.03-11.98,17.69-1.97,2.75-2.82,5.51-2.77,8.91.17,12.19.07,24.37.07,36.56,0,1.25,0,2.5,0,3.79.68.17,1.11.38,1.54.38,13.93.02,27.86.07,41.79-.04,1.35-.01,2.83-.82,4-1.62,6.62-4.51,13.16-9.13,20.15-14.01v63.32c-3.74-2.52-7.41-4.46-10.44-7.12-7.61-6.69-16.19-9.05-26.29-8.21-8.8.73-17.72.15-26.58.15h-4.01c-.07,1.43-.16,2.54-.16,3.65-.01,12.42-.08,24.84.07,37.25.02,1.92.67,4.07,1.69,5.71,4.07,6.53,8.39,12.9,12.86,19.69h-61.77Z"/>
  </g>
</svg>