<?xml version="1.0" encoding="UTF-8"?>
<svg id="Capa_2" data-name="Capa 2" xmlns="http://www.w3.org/2000/svg" viewBox="0 0 548.42 1814.79">
  <defs>
    <style>
      .cls-1 {
        fill: #000;
        stroke-width: 0px;
      }
    </style>
  </defs>
  <g id="_ëîé_1" data-name="‘ëîé_1">
    <path class="cls-1" d="M546.36,825.82c-7.8-93.88-51.9-172.07-110.3-243.85-26.19-32.16-52.91-61.58-64.99-102.35-9-30.38-7.51-62.44-7.94-93.78-.39-29.7-.87-59.36-1.06-89.07-.34-56.52-1.49-113.04-1.54-169.61,10.93-10.74,12.61-16.56,12.76-31.53.1-11.02,3.23-36.45-4.28-44.58l-5.44-5.01c.19-9.58,3.08-25.9-3.76-33.36-4.96-5.39-12.32-6.88-19.26-8.23C319.69.34,297.98.14,276.75,0l-41.79,1.01c-13.34,1.01-37.94.91-47.09,12.32-7.17,8.91-4.81,24.17-4.24,34.9l-9.82,10.59c-.91,14.59-2.79,37.7.77,51.76,1.35,5.2,6.07,11.31,9.1,15.7.77,65.28-.1,130.57-.34,195.85-.1,25.85-.05,51.71-.1,77.56-.05,26.48.53,52.72-6.5,78.52-15.6,57.2-59.51,94.6-94.22,140.15-39.43,51.71-64.8,112.66-76.84,176.35-7.32,38.66-5.87,76.5-4.86,115.55.77,29.27,1.11,58.59,1.64,87.91,1.97,109.77,4.09,219.59,5.63,329.4,1.3,91.57,3.03,183.09,4.67,274.66.43,24.99.96,49.93,1.2,74.91.14,15.89-.72,32.88,1.54,48.63,1.59,11.36,9.82,22.39,17.77,30.23,56.33,55.51,187.52,59.75,261.86,58.64l20.08-1.06c48.87-3.13,98.74-7.66,145.35-23.59,21.95-7.51,43.28-17.96,58.74-35.82,6.45-7.46,10.88-16.71,11.94-26.58,1.88-17.19,1.49-35.1,1.73-52.38.39-27.35.77-54.69,1.3-82.04,2.02-100.57,3.18-201.15,5.01-301.72,1.78-96.72,3.42-193.44,5.63-290.17,1.3-58.01,6.26-117.66,1.44-175.49ZM253.11,16.51c24.84-.82,50.84.05,75.25,4.62l-34.76,2.07c-25.32,1.54-52.33,1.4-77.42-2.7l36.93-4ZM206.7,33.65c27.73.91,53.49,6.21,80.93,9.2,10.3,1.16,20.61,2.07,30.96,2.6,3.03.14,8.62-.34,10.98,1.4-22.05,2.07-45.26.67-67.5.96-14.15.19-28.65,1.01-42.75.1-5.06-.34-9.63-.14-13.87-3.03l1.25-11.22ZM199.38,72.17c2.41-3.56,4.09-4.77,8.18-6.11l129.07,4v43.2h-53.48l-73.48,1.04-10.93-7.13c-.14-11.17-1.44-24.12.63-35ZM40.27,972.03c35.05,10.06,72.65,13.96,108.85,17.14,50.34,4.4,97.91,5.92,147.9,4.84v392.91c-39.14.6-78.31-1-116.99-4.4-44.97-4-89.02-9.73-132.49-22.19l-7.27-388.28ZM503.84,955.17l-.45,23.97c-.19,88.33-2.57,176.67-4.55,265-.58,24.89-.77,49.83-1.01,74.77-.14,12.13.77,25.37-.58,37.41-.11,1.03-.5,2.02-.99,2.95l-.37,19.81c0,.15.01.29.02.45.25,24.38-.78,48.95-1.4,73.38l-.98,52.17c-.77,42.98-1.5,85.98-2.19,128.99-.39,23.01-.82,46.03-1.06,69.04-.1,8.71,1.54,21.42-.77,29.46-1.06,3.8-3.85,4.09-7.17,5.58-7.13,5.83-19.98,9.2-28.84,12.28-79.58,27.44-173.17,27.2-256.22,20.46-32.26-2.65-65.24-7.85-95.9-18.39-18.92-6.55-34.71-13.34-48.05-28.93l-5.68-354.73c28.45,9.92,60.04,14.15,89.74,17.96,55.57,6.89,111.73,9.67,167.75,8.11l.06-8.14s-.04,0-.06,0v-392.95s.07,0,.1,0l.07-9.32c-29.27.79-55.57.75-85.07-.03-59.89-1.64-121.76-5.87-179.82-21.23-.82-30.04-1.3-60.13-1.73-90.17-.29-21.33-1.59-43.62,2.02-64.71,13.14-76.65,56.28-143.13,103.7-203.17,20.46-25.95,45.83-53.54,56.14-85.55,9.9-30.71,10.73-64.11,10.67-96.7h0s.31-33.12.31-33.12c.09-.08.19-.14.28-.22l.39-25.52c-.14-.04-.28-.08-.43-.12l.05-5.52h.33c.02-3.86-.01-13.72-.07-27.29l.05-4.87h-.07c-.25-62.87-.86-191.32.52-194.5.39-.87,1.35-1.35,2.02-2.02l10.59.53s.08.08.12.12c22.88,1.25,77.64,3.52,116.35-.65l-6.45,203.55s-.15,4.23-.35,11.04l-.53,16.89h.09c0,.22-.01.44-.02.66-.03,0-.06,0-.09.01l-1.05,33,.59.02c-.01,1.62-.02,3.23-.03,4.83-.24.05-.48.1-.72.14v14.19c.47,4.88.81,9.76,1.06,14.64,0,.02,0,.05,0,.08.02.46.04.89.07,1.31,1.35,26.93.55,53.92,7.99,80.41,13.87,49.4,57.44,90.32,87.04,130.9,26.09,35.82,46.99,75.1,59.94,117.57,6.4,20.94,10.54,43.52,13.05,65.24,3.71,32.11,2.41,64.9,2.21,97.16-.04,9.17,1.41,23.26-.63,33.79Z"/>
  </g>
</svg>