<?xml version="1.0" encoding="UTF-8"?>
<svg id="Capa_2" data-name="Capa 2" xmlns="http://www.w3.org/2000/svg" viewBox="0 0 318 350">
  <defs>
    <style>
      .cls-1 {
        fill: #000;
        stroke-width: 0px;
      }
    </style>
  </defs>
  <g id="_ëîé_1" data-name="‘ëîé_1">
    <path class="cls-1" d="M318,49c-.94,3.16-1.77,6.37-2.85,9.48-4.91,14.04-15.45,19.25-28.6,12.64-16.69-8.39-33.07-8.1-50.26-2.22-21.02,7.18-42.7,11.56-65.64,13.05,0,2.31,0,4.41,0,6.51,0,39.97.11,79.94-.2,119.91-.04,4.7-2.06,9.57-3.99,14.01-1.22,2.81-1.83,4.8.5,7.09,1.42,1.4,2.73,2.92,3.95,4.5,5.08,6.61,4.48,11.5-1.96,16.67-5.51,4.43-5.52,5.31-.09,9.64,1.17.93,2.39,1.82,3.5,2.82,4.8,4.34,4.93,9.86.2,14.29-2.03,1.91-4.37,3.49-7.32,5.82,5.11,3.88,10.66,7.18,10.54,14.31-.12,7.17-6.58,9.39-11.6,14.23,3.05,1.17,5.2,2.11,7.43,2.82,4.73,1.52,6.05,3.8,4.99,8.6-1.13,5.13-4.46,8.33-8.85,10.84-6.29,3.61-6.37,6-.62,10.59,2.28,1.82,4.59,3.59,6.89,5.39h-9c-4.72-2.34-9.77-4.2-14.09-7.13-5.09-3.45-5-6.48-.84-11.07,5.75-6.34,5.48-10.4-1.03-15.96-6-5.12-5.9-7.97.43-12.23,5.6-3.77,6.16-7.73,1.72-12.82-.87-1-1.94-1.82-2.89-2.75-3.65-3.52-3.44-7.06.58-9.95,8.01-5.76,8.08-9.04.32-15.22-.91-.73-1.86-1.4-2.8-2.09-5.34-3.93-5.42-7.12-.32-11.45,6.42-5.43,6.47-9.14.21-14.56-7.15-6.2-7.23-8.82-.13-14.98,3.15-2.73,3-5.9,2.31-9.54-.84-4.37-1.68-8.83-1.7-13.25-.13-36.14-.07-72.27-.07-108.41,0-1.98,0-3.96,0-6.4-7.49-.94-14.81-1.28-21.84-2.87-16.05-3.62-32.07-7.47-47.89-11.95-14.7-4.17-28.72-4.18-42.72,2.61-16.8,8.15-27.75,2.78-32.5-15.36-.5-1.9-1.16-3.76-1.74-5.63,0-5,0-10,0-15,.55-2.05,1.1-4.11,1.64-6.16C6.46,9.42,17.43,4,34.38,12.26c14,6.82,28.05,6.86,42.66,2.53,12.41-3.68,24.9-7.21,37.53-10.06C124.24,2.55,134.18,1.53,144,0c10,0,20,0,30,0,1.11.28,2.2.72,3.32.81,19.65,1.65,38.88,5.64,57.46,12.07,17.99,6.23,35.11,6.76,52.59-2.11,12.02-6.1,22.15-1.24,27.18,11.39,1.4,3.51,2.31,7.22,3.45,10.83v16Z"/>
  </g>
</svg>