<?xml version="1.0" encoding="UTF-8"?>
<svg id="Layer_1" xmlns="http://www.w3.org/2000/svg" version="1.1" viewBox="0 0 2000 1174.89">
  <!-- Generator: Adobe Illustrator 29.1.0, SVG Export Plug-In . SVG Version: 2.1.0 Build 142)  -->
  <defs>
    <style>
      .st0 {
        fill: #8c6f36;
      }
    </style>
  </defs>
  <path class="st0" d="M1609.97,447.22c132.44-9.65,261.57,75.56,278.64,211.93,28.49,227.69-243.73,358.64-417.37,221.32-175.97-139.17-81.74-417.18,138.73-433.24ZM1617.15,561.94c-155.13,15.81-145.83,271.93,28.18,259.39,166.74-12.02,153.68-277.92-28.18-259.39Z"/>
  <path class="st0" d="M685.3,447.22c177.03-12.98,325.61,140.7,269.72,317.7-59.64,188.87-324.99,230.5-447.05,77-123.58-155.42-16.85-380.46,177.33-394.7ZM692.48,561.94c-145.69,14.85-148.25,248.84,6.68,259.39,186.88,12.72,185.38-278.97-6.68-259.39Z"/>
  <polygon class="st0" points="233.21 455.65 233.21 814.18 428.92 814.18 428.92 927.12 109.33 927.12 109.33 455.65 233.21 455.65"/>
  <path class="st0" d="M1157.88,455.65v358.53h193.01c.19,0,2.69,2.5,2.69,2.69v110.25h-319.59v-471.47h123.89Z"/>
  <path class="st0" d="M1859.38,74.08c6.11-1.75,9.68,3.34,9.16,9.14-.91,10.1-15.57,25.32-19.3,38.2-5.17,17.84-3.54,36.76-8.62,55.93-6.42,24.25-16.11,32.01-27.05,51.87-12.59,22.85-9.52,45.01-19.23,68.64-23.78,57.86-76.4,49.94-117.6,85.16-3.9,3.34-22.5,24.19-24.21,24.19-.61,0-3.81-3.56-4.19-4.86-3.47-11.85,21.13-46.5,25.34-61.83,4.46-16.24,4.38-35.91,9.39-51.58,4.82-15.08,16.86-34.46,23.27-50.27,10.03-24.72,20.89-65.54,36.9-85.06,19.93-24.28,52.87-28.69,78.11-45.71,7.76-5.23,35.58-33.13,38.03-33.83Z"/>
  <path class="st0" d="M1628.29,1076.81c-2.2,10.18-24.18,21.88-34.02,23.39-72.15,11.1-73.49-101.04,3.96-86.6,5.79,1.08,24.71,12.05,24.22,18.42-.08,1-14.07,13.12-15.06,13.3-2.96.53-8.76-10.19-19.47-10.76-45.43-2.44-19.72,71.95,17.02,36h-19.76s0-21.53,0-21.53h43.09c-1.18,8.13,1.62,20.31,0,27.79Z"/>
  <path class="st0" d="M272.24,1013.59c74.89-12.56,75.07,91.89,8.59,87.42-54.58-3.67-55.14-79.61-8.59-87.42ZM277.61,1035.1c-23.74,4.89-19.03,46.46,8.05,44.03,29.64-2.66,26.34-51.12-8.05-44.03Z"/>
  <path class="st0" d="M1240,1013.6c61.45-10.42,78.83,64.27,31.51,83.45-32.45,13.15-68.4-9.56-65.17-45.35,1.43-15.87,17.62-35.38,33.66-38.1ZM1245.33,1035.06c-21.22,4.88-19.64,47.43,9.92,44.1,28.42-3.21,24.86-52.1-9.92-44.1Z"/>
  <path class="st0" d="M1840.15,1054.4v-41.23c4.04.44,23.34-1.7,23.34,2.69v85.15l-9.97-1.7-42.1-39.53v39.44h-23.34v-86.05l9.97,1.7,42.1,39.53Z"/>
  <polygon class="st0" points="637.19 1054.4 637.19 1013.17 660.53 1013.17 660.53 1101.01 650.56 1099.31 608.47 1059.78 608.47 1099.21 585.12 1099.21 585.12 1013.17 595.1 1014.86 637.19 1054.4"/>
  <path class="st0" d="M901.13,1099.21v-86.05h33.22c3.01,0,16.26,3.85,19.79,5.34,30.16,12.7,31.91,55.61,5.05,73.24-2.78,1.82-15.19,7.47-17.65,7.47h-40.4ZM924.47,1077.7c38.89,4.54,39.9-46.62,0-43.02v43.02Z"/>
  <path class="st0" d="M1383.21,1013.17c20.99,2.47,35.49,18.47,29.11,39.82-1.66,5.54-10.24,14.87-10.02,16.31.57,3.7,22.44,27.23,19.51,29.9-6.75-1.07-19.43,1.94-25.14-.87-4.55-2.23-15.34-23.95-18.32-25.61-2.23-1.25-5.97-.1-8.6-.4v26.89h-23.34v-83.36c0-.19,2.5-2.69,2.69-2.69,10.48,0,24.18-1.17,34.11,0ZM1369.73,1052.61c27.36,4.24,27.36-22.18,0-17.94v17.94Z"/>
  <path class="st0" d="M193.48,1038c-.48.81-15.59,9.22-16.59,9.02-1.94-.4-7.06-9.72-13.62-11.51-34.38-9.39-40.98,41.3-9.43,43.62,15.97,1.17,20.28-13.32,22.95-13.94,1.66-.39,18.11,9.71,16.72,14.84-3.11,11.43-25.44,20.7-36.58,21.1-63.34,2.3-64.69-96.2,7.17-87.96,8.83,1.01,34.73,15.79,29.38,24.84Z"/>
  <path class="st0" d="M439.92,1046.99c-.66-.39-3.31-7.5-8.73-10.11-32.56-15.66-46.79,35.96-14.89,41.89,15.52,2.89,22.67-12.94,26.06-13.19,1.62-.12,17.12,10.03,16.89,12.71-.68,7.81-18.61,18.77-26.04,20.73-43.52,11.47-76.78-35.8-49.18-70.62,18.06-22.78,62.87-20.92,75.27,6.95-2.73,3.37-15.96,13.63-19.37,11.64Z"/>
  <polygon class="st0" points="1086.06 1013.17 1086.06 1034.68 1050.15 1034.68 1050.15 1045.43 1075.29 1045.43 1075.29 1065.15 1050.15 1065.15 1050.15 1077.7 1087.85 1077.7 1087.85 1099.21 1026.81 1099.21 1026.81 1013.17 1086.06 1013.17"/>
  <polygon class="st0" points="1736.02 1013.17 1736.02 1034.68 1700.11 1034.68 1700.11 1045.43 1725.24 1045.43 1725.24 1065.15 1700.11 1065.15 1700.11 1077.7 1737.81 1077.7 1737.81 1099.21 1676.77 1099.21 1676.77 1013.17 1736.02 1013.17"/>
  <path class="st0" d="M705.42,1099.21l36.78-84.27c2.62-2.65,8.38-2.93,10.81,0l36.78,84.25c-6.37-1.14-18.66,1.72-24.02-.2-3.5-1.26-2.24-5.88-3.14-6.7-1.07-.99-26.73-.89-29.09-.33-2.6.62-2.61,7.25-3,7.25h-25.14ZM752.1,1072.32l-5.36-14.32-5.41,14.31h10.76Z"/>
  <path class="st0" d="M1491.83,1099.21h-25.14v-83.36c0-4.03,25.14-4.03,25.14,0v83.36Z"/>
  <rect class="st0" x="507.92" y="1013.17" width="23.34" height="86.05"/>
</svg>