<?xml version="1.0" encoding="UTF-8"?>
<svg id="Layer_1" xmlns="http://www.w3.org/2000/svg" version="1.1" viewBox="0 0 1894.93 536.48">
  <!-- Generator: Adobe Illustrator 29.1.0, SVG Export Plug-In . SVG Version: 2.1.0 Build 142)  -->
  <defs>
    <style>
      .st0 {
        fill: #8c6f36;
      }
    </style>
  </defs>
  <g>
    <path class="st0" d="M755.81,242.51c58.87-4.29,116.27,33.59,123.85,94.2,12.67,101.21-108.34,159.41-185.52,98.37-78.22-61.86-36.33-185.43,61.67-192.57ZM759,293.5c-68.95,7.03-64.82,120.87,12.52,115.3,74.12-5.34,68.31-123.54-12.52-115.3Z"/>
    <path class="st0" d="M344.8,242.51c78.69-5.77,144.73,62.54,119.89,141.21-26.51,83.95-144.46,102.46-198.71,34.23-54.93-69.08-7.49-169.11,78.82-175.44ZM347.99,293.5c-64.76,6.6-65.9,110.61,2.97,115.3,83.07,5.65,82.4-124-2.97-115.3Z"/>
    <polygon class="st0" points="143.85 246.26 143.85 405.62 230.84 405.62 230.84 455.82 88.78 455.82 88.78 246.26 143.85 246.26"/>
    <path class="st0" d="M554.86,246.26v159.37h85.79c.08,0,1.2,1.11,1.2,1.2v49h-142.06v-209.57h55.07Z"/>
    <path class="st0" d="M866.67,76.65c2.72-.78,4.3,1.48,4.07,4.06-.4,4.49-6.92,11.26-8.58,16.98-2.3,7.93-1.57,16.34-3.83,24.86-2.86,10.78-7.16,14.23-12.02,23.06-5.6,10.16-4.23,20.01-8.55,30.51-10.57,25.72-33.96,22.2-52.27,37.85-1.73,1.48-10,10.75-10.76,10.75-.27,0-1.69-1.58-1.86-2.16-1.54-5.27,9.39-20.67,11.26-27.48,1.98-7.22,1.94-15.96,4.17-22.93,2.14-6.7,7.49-15.32,10.34-22.34,4.46-10.99,9.28-29.13,16.4-37.81,8.86-10.79,23.5-12.75,34.72-20.32,3.45-2.33,15.82-14.73,16.91-15.04Z"/>
  </g>
  <g>
    <path class="st0" d="M1692.93,360.74c-1.06,4.9-11.64,10.53-16.37,11.26-34.73,5.34-35.37-48.64,1.91-41.69,2.79.52,11.89,5.8,11.66,8.87-.04.48-6.77,6.32-7.25,6.4-1.43.26-4.22-4.9-9.37-5.18-21.87-1.17-9.49,34.64,8.19,17.33h-9.51s0-10.36,0-10.36h20.74c-.57,3.91.78,9.78,0,13.38Z"/>
    <path class="st0" d="M1040.19,330.32c36.05-6.04,36.13,44.23,4.13,42.08-26.27-1.77-26.54-38.32-4.13-42.08ZM1042.78,340.67c-11.43,2.36-9.16,22.36,3.87,21.19,14.27-1.28,12.68-24.6-3.87-21.19Z"/>
    <path class="st0" d="M1506.03,330.32c29.58-5.02,37.95,30.94,15.17,40.17-15.62,6.33-32.93-4.6-31.37-21.83.69-7.64,8.48-17.03,16.2-18.34ZM1508.59,340.65c-10.21,2.35-9.46,22.83,4.78,21.23,13.68-1.54,11.97-25.08-4.78-21.23Z"/>
    <path class="st0" d="M1794.91,349.96v-19.85c1.95.21,11.24-.82,11.24,1.29v40.99l-4.8-.82-20.26-19.03v18.98h-11.24v-41.42l4.8.82,20.26,19.03Z"/>
    <polygon class="st0" points="1215.86 349.96 1215.86 330.11 1227.1 330.11 1227.1 372.39 1222.3 371.58 1202.03 352.55 1202.03 371.53 1190.8 371.53 1190.8 330.11 1195.6 330.93 1215.86 349.96"/>
    <path class="st0" d="M1342.91,371.53v-41.42h15.99c1.45,0,7.83,1.86,9.52,2.57,14.52,6.11,15.36,26.77,2.43,35.25-1.34.88-7.31,3.6-8.5,3.6h-19.45ZM1354.14,361.18c18.72,2.18,19.2-22.44,0-20.71v20.71Z"/>
    <path class="st0" d="M1574.96,330.11c10.1,1.19,17.08,8.89,14.01,19.17-.8,2.67-4.93,7.16-4.82,7.85.27,1.78,10.8,13.11,9.39,14.39-3.25-.51-9.35.93-12.1-.42-2.19-1.07-7.38-11.53-8.82-12.33-1.07-.6-2.87-.05-4.14-.19v12.94h-11.24v-40.13c0-.09,1.2-1.29,1.3-1.29,5.04,0,11.64-.56,16.42,0ZM1568.48,349.1c13.17,2.04,13.17-10.68,0-8.64v8.64Z"/>
    <path class="st0" d="M1002.28,342.07c-.23.39-7.51,4.44-7.99,4.34-.93-.19-3.4-4.68-6.56-5.54-16.55-4.52-19.73,19.88-4.54,21,7.69.56,9.76-6.41,11.04-6.71.8-.19,8.72,4.68,8.05,7.14-1.5,5.5-12.24,9.96-17.61,10.16-30.49,1.11-31.14-46.3,3.45-42.34,4.25.49,16.72,7.6,14.14,11.96Z"/>
    <path class="st0" d="M1120.91,346.39c-.32-.19-1.59-3.61-4.2-4.86-15.67-7.54-22.52,17.31-7.17,20.16,7.47,1.39,10.91-6.23,12.55-6.35.78-.06,8.24,4.83,8.13,6.12-.33,3.76-8.96,9.04-12.54,9.98-20.95,5.52-36.96-17.23-23.67-33.99,8.69-10.97,30.26-10.07,36.23,3.34-1.32,1.62-7.68,6.56-9.33,5.6Z"/>
    <polygon class="st0" points="1431.93 330.11 1431.93 340.47 1414.64 340.47 1414.64 345.64 1426.74 345.64 1426.74 355.14 1414.64 355.14 1414.64 361.18 1432.79 361.18 1432.79 371.53 1403.41 371.53 1403.41 330.11 1431.93 330.11"/>
    <polygon class="st0" points="1744.79 330.11 1744.79 340.47 1727.5 340.47 1727.5 345.64 1739.6 345.64 1739.6 355.14 1727.5 355.14 1727.5 361.18 1745.65 361.18 1745.65 371.53 1716.27 371.53 1716.27 330.11 1744.79 330.11"/>
    <path class="st0" d="M1248.7,371.53l17.71-40.56c1.26-1.28,4.03-1.41,5.2,0l17.71,40.55c-3.07-.55-8.98.83-11.56-.1-1.69-.61-1.08-2.83-1.51-3.23-.51-.48-12.87-.43-14-.16-1.25.3-1.25,3.49-1.44,3.49h-12.1ZM1271.17,358.58l-2.58-6.89-2.6,6.89h5.18Z"/>
    <path class="st0" d="M1627.25,371.53h-12.1v-40.13c0-1.94,12.1-1.94,12.1,0v40.13Z"/>
    <rect class="st0" x="1153.64" y="330.11" width="11.24" height="41.42"/>
  </g>
</svg>