<?xml version="1.0" encoding="UTF-8"?>
<svg id="Capa_2" data-name="Capa 2" xmlns="http://www.w3.org/2000/svg" viewBox="0 0 791.8 383.49">
  <defs>
    <style>
      .cls-1 {
        fill: #8c6f36;
        stroke-width: 0px;
      }
    </style>
  </defs>
  <g id="Layer_1" data-name="Layer 1">
    <g>
      <path class="cls-1" d="M667.03,166.02c58.87-4.29,116.27,33.59,123.85,94.2,12.67,101.21-108.34,159.41-185.52,98.37-78.22-61.86-36.33-185.43,61.67-192.57h0ZM670.22,217.01c-68.95,7.03-64.82,120.87,12.52,115.3,74.12-5.34,68.31-123.54-12.52-115.3Z"/>
      <path class="cls-1" d="M256.02,166.02c78.69-5.77,144.73,62.54,119.89,141.21-26.51,83.95-144.46,102.46-198.71,34.23-54.93-69.08-7.49-169.11,78.82-175.44h0ZM259.21,217.01c-64.76,6.6-65.9,110.61,2.97,115.3,83.07,5.65,82.4-124-2.97-115.3Z"/>
      <polygon class="cls-1" points="55.07 169.77 55.07 329.13 142.06 329.13 142.06 379.33 0 379.33 0 169.77 55.07 169.77"/>
      <path class="cls-1" d="M466.08,169.77v159.37h85.79c.08,0,1.2,1.11,1.2,1.2v49h-142.06v-209.57h55.07Z"/>
      <path class="cls-1" d="M777.89.16c2.72-.78,4.3,1.48,4.07,4.06-.4,4.49-6.92,11.26-8.58,16.98-2.3,7.93-1.57,16.34-3.83,24.86-2.86,10.78-7.16,14.23-12.02,23.06-5.6,10.16-4.23,20.01-8.55,30.51-10.57,25.72-33.96,22.2-52.27,37.85-1.73,1.48-10,10.75-10.76,10.75-.27,0-1.69-1.58-1.86-2.16-1.54-5.27,9.39-20.67,11.26-27.48,1.98-7.22,1.94-15.96,4.17-22.93,2.14-6.7,7.49-15.32,10.34-22.34,4.46-10.99,9.28-29.13,16.4-37.81,8.86-10.79,23.5-12.75,34.72-20.32,3.45-2.33,15.82-14.73,16.91-15.04h0Z"/>
    </g>
  </g>
</svg>